<svg width="49" height="49" viewBox="0 0 49 49" fill="none" xmlns="http://www.w3.org/2000/svg">
<path d="M44.5305 8.37688C44.7235 8.37688 44.9085 8.30088 45.0445 8.16388L48.2565 4.94987C48.4645 4.74187 48.5265 4.42987 48.4135 4.15787C48.3015 3.88687 48.0355 3.70987 47.7425 3.70987H45.2945V1.26187C45.2945 0.96787 45.1175 0.702873 44.8455 0.589873C44.5745 0.478873 44.2615 0.539878 44.0535 0.747878L40.8415 3.96088C40.7055 4.09688 40.6295 4.28187 40.6295 4.47487V7.34888L39.1265 8.85187C35.0175 4.99387 29.4955 2.62187 23.4265 2.62187C10.7695 2.62187 0.470459 12.9199 0.470459 25.5779C0.470459 38.2369 10.7695 48.5349 23.4265 48.5349C36.0855 48.5349 46.3835 38.2369 46.3835 25.5779C46.3835 19.5109 44.0125 13.9889 40.1544 9.88087L41.6575 8.37787H44.5305V8.37688ZM42.0825 4.77588L43.8405 3.01787V4.43587C43.8405 4.83687 44.1665 5.16388 44.5675 5.16388H45.9865L44.2285 6.92187H42.0825V4.77588ZM44.9285 25.5769C44.9285 37.4329 35.2835 47.0789 23.4265 47.0789C11.5715 47.0789 1.92545 37.4329 1.92545 25.5769C1.92545 13.7219 11.5715 4.07587 23.4265 4.07587C29.0935 4.07587 34.2534 6.28287 38.0984 9.87987L33.2415 14.7359C31.3405 13.0139 28.9825 11.7849 26.3515 11.2509C25.9535 11.1709 25.5735 11.4259 25.4935 11.8189C25.4145 12.2119 25.6685 12.5959 26.0615 12.6749C28.4055 13.1519 30.5095 14.2399 32.2125 15.7649L26.8275 21.1499C25.8845 20.4239 24.7065 19.9869 23.4265 19.9869C20.3445 19.9869 17.8375 22.4949 17.8375 25.5769C17.8375 28.6599 20.3445 31.1669 23.4265 31.1669C26.5095 31.1669 29.0175 28.6599 29.0175 25.5769C29.0175 24.2979 28.5805 23.1219 27.8555 22.1789L33.2404 16.7939C34.7684 18.5019 35.8585 20.6119 36.3315 22.9639C36.4015 23.3099 36.7045 23.5479 37.0435 23.5479C37.0915 23.5479 37.1394 23.5439 37.1884 23.5329C37.5834 23.4539 37.8375 23.0699 37.7585 22.6769C37.2265 20.0369 35.9955 17.6729 34.2695 15.7659L39.1265 10.9089C42.7215 14.7529 44.9285 19.9109 44.9285 25.5769ZM22.9135 26.0919C23.0555 26.2339 23.2415 26.3049 23.4275 26.3049C23.6135 26.3049 23.8005 26.2339 23.9415 26.0919L26.8165 23.2169C27.2845 23.8869 27.5615 24.6989 27.5615 25.5769C27.5615 27.8569 25.7064 29.7129 23.4254 29.7129C21.1464 29.7129 19.2915 27.8579 19.2915 25.5769C19.2915 23.2979 21.1464 21.4419 23.4254 21.4419C24.3044 21.4419 25.1185 21.7189 25.7885 22.1879L22.9135 25.0629C22.6285 25.3469 22.6285 25.8069 22.9135 26.0919Z" fill="white"/>
</svg>
